
<global>
amp_veltrack=0
ampeg_attack=0.001
ampeg_release=1.5
</global>

<group>
group_label=RR2
seq_length=4
seq_position=1

<region>
hivel=123
key=G3
lovel=57
offset=4956
sample=Tenors_Line_Drum_1_HotRods_Hit_F_D4_RR2.opus
xf_velcurve=gain
xfin_hivel=77
xfin_lovel=57
xfout_hivel=123
xfout_lovel=103
</region>

<region>
hivel=127
key=G3
lovel=83
offset=581
sample=Tenors_Line_Drum_1_HotRods_Hit_FF_D4_RR2.opus
xf_velcurve=gain
xfin_hivel=103
xfin_lovel=83
</region>

<region>
hivel=97
key=G3
lovel=31
offset=5614
sample=Tenors_Line_Drum_1_HotRods_Hit_MF_D4_RR2.opus
xf_velcurve=gain
xfin_hivel=51
xfin_lovel=31
xfout_hivel=97
xfout_lovel=77
</region>

<region>
hivel=71
key=G3
lovel=5
offset=4426
sample=Tenors_Line_Drum_1_HotRods_Hit_MP_D4_RR2.opus
xf_velcurve=gain
xfin_hivel=25
xfin_lovel=5
xfout_hivel=71
xfout_lovel=51
</region>

<region>
hivel=45
key=G3
lovel=0
offset=5380
sample=Tenors_Line_Drum_1_HotRods_Hit_P_D4_RR2.opus
xf_velcurve=gain
xfout_hivel=45
xfout_lovel=25
</region>

<region>
hivel=123
key=F#3
lovel=57
offset=4893
sample=Tenors_Line_Drum_2_HotRods_Hit_F_D4_RR2.opus
xf_velcurve=gain
xfin_hivel=77
xfin_lovel=57
xfout_hivel=123
xfout_lovel=103
</region>

<region>
hivel=127
key=F#3
lovel=83
offset=3758
sample=Tenors_Line_Drum_2_HotRods_Hit_FF_D4_RR2.opus
xf_velcurve=gain
xfin_hivel=103
xfin_lovel=83
</region>

<region>
hivel=97
key=F#3
lovel=31
offset=4696
sample=Tenors_Line_Drum_2_HotRods_Hit_MF_D4_RR2.opus
xf_velcurve=gain
xfin_hivel=51
xfin_lovel=31
xfout_hivel=97
xfout_lovel=77
</region>

<region>
hivel=71
key=F#3
lovel=5
offset=3469
sample=Tenors_Line_Drum_2_HotRods_Hit_MP_D4_RR2.opus
xf_velcurve=gain
xfin_hivel=25
xfin_lovel=5
xfout_hivel=71
xfout_lovel=51
</region>

<region>
hivel=45
key=F#3
lovel=0
offset=3776
sample=Tenors_Line_Drum_2_HotRods_Hit_P_D4_RR2.opus
xf_velcurve=gain
xfout_hivel=45
xfout_lovel=25
</region>

<region>
hivel=123
key=F3
lovel=57
offset=938
sample=Tenors_Line_Drum_3_HotRods_Hit_F_D4_RR2.opus
xf_velcurve=gain
xfin_hivel=77
xfin_lovel=57
xfout_hivel=123
xfout_lovel=103
</region>

<region>
hivel=127
key=F3
lovel=83
offset=606
sample=Tenors_Line_Drum_3_HotRods_Hit_FF_D4_RR2.opus
xf_velcurve=gain
xfin_hivel=103
xfin_lovel=83
</region>

<region>
hivel=97
key=F3
lovel=31
offset=4925
sample=Tenors_Line_Drum_3_HotRods_Hit_MF_D4_RR2.opus
xf_velcurve=gain
xfin_hivel=51
xfin_lovel=31
xfout_hivel=97
xfout_lovel=77
</region>

<region>
hivel=71
key=F3
lovel=5
offset=3268
sample=Tenors_Line_Drum_3_HotRods_Hit_MP_D4_RR2.opus
xf_velcurve=gain
xfin_hivel=25
xfin_lovel=5
xfout_hivel=71
xfout_lovel=51
</region>

<region>
hivel=45
key=F3
lovel=0
offset=5298
sample=Tenors_Line_Drum_3_HotRods_Hit_P_D4_RR2.opus
xf_velcurve=gain
xfout_hivel=45
xfout_lovel=25
</region>

<region>
hivel=123
key=E3
lovel=57
offset=626
sample=Tenors_Line_Drum_4_HotRods_Hit_F_D4_RR2.opus
xf_velcurve=gain
xfin_hivel=77
xfin_lovel=57
xfout_hivel=123
xfout_lovel=103
</region>

<region>
hivel=127
key=E3
lovel=83
offset=618
sample=Tenors_Line_Drum_4_HotRods_Hit_FF_D4_RR2.opus
xf_velcurve=gain
xfin_hivel=103
xfin_lovel=83
</region>

<region>
hivel=97
key=E3
lovel=31
offset=4433
sample=Tenors_Line_Drum_4_HotRods_Hit_MF_D4_RR2.opus
xf_velcurve=gain
xfin_hivel=51
xfin_lovel=31
xfout_hivel=97
xfout_lovel=77
</region>

<region>
hivel=71
key=E3
lovel=5
offset=4438
sample=Tenors_Line_Drum_4_HotRods_Hit_MP_D4_RR2.opus
xf_velcurve=gain
xfin_hivel=25
xfin_lovel=5
xfout_hivel=71
xfout_lovel=51
</region>

<region>
hivel=45
key=E3
lovel=0
offset=4627
sample=Tenors_Line_Drum_4_HotRods_Hit_P_D4_RR2.opus
xf_velcurve=gain
xfout_hivel=45
xfout_lovel=25
</region>

<region>
hivel=123
key=D#3
lovel=57
offset=4700
sample=Tenors_Line_Drum_5_HotRods_Hit_F_D4_RR2.opus
xf_velcurve=gain
xfin_hivel=77
xfin_lovel=57
xfout_hivel=123
xfout_lovel=103
</region>

<region>
hivel=127
key=D#3
lovel=83
offset=1688
sample=Tenors_Line_Drum_5_HotRods_Hit_FF_D4_RR2.opus
xf_velcurve=gain
xfin_hivel=103
xfin_lovel=83
</region>

<region>
hivel=97
key=D#3
lovel=31
offset=5157
sample=Tenors_Line_Drum_5_HotRods_Hit_MF_D4_RR2.opus
xf_velcurve=gain
xfin_hivel=51
xfin_lovel=31
xfout_hivel=97
xfout_lovel=77
</region>

<region>
hivel=71
key=D#3
lovel=5
offset=4410
sample=Tenors_Line_Drum_5_HotRods_Hit_MP_D4_RR2.opus
xf_velcurve=gain
xfin_hivel=25
xfin_lovel=5
xfout_hivel=71
xfout_lovel=51
</region>

<region>
hivel=45
key=D#3
lovel=0
offset=4671
sample=Tenors_Line_Drum_5_HotRods_Hit_P_D4_RR2.opus
xf_velcurve=gain
xfout_hivel=45
xfout_lovel=25
</region>

<region>
hivel=123
key=D3
lovel=57
offset=4047
sample=Tenors_Line_Drum_6_HotRods_Hit_F_D4_RR2.opus
xf_velcurve=gain
xfin_hivel=77
xfin_lovel=57
xfout_hivel=123
xfout_lovel=103
</region>

<region>
hivel=127
key=D3
lovel=83
offset=2265
sample=Tenors_Line_Drum_6_HotRods_Hit_FF_D4_RR2.opus
xf_velcurve=gain
xfin_hivel=103
xfin_lovel=83
</region>

<region>
hivel=97
key=D3
lovel=31
offset=5190
sample=Tenors_Line_Drum_6_HotRods_Hit_MF_D4_RR2.opus
xf_velcurve=gain
xfin_hivel=51
xfin_lovel=31
xfout_hivel=97
xfout_lovel=77
</region>

<region>
hivel=71
key=D3
lovel=5
offset=4890
sample=Tenors_Line_Drum_6_HotRods_Hit_MP_D4_RR2.opus
xf_velcurve=gain
xfin_hivel=25
xfin_lovel=5
xfout_hivel=71
xfout_lovel=51
</region>

<region>
hivel=45
key=D3
lovel=0
offset=4451
sample=Tenors_Line_Drum_6_HotRods_Hit_P_D4_RR2.opus
xf_velcurve=gain
xfout_hivel=45
xfout_lovel=25
</region>
</group>

<group>
group_label=RR4
seq_length=4
seq_position=2

<region>
hivel=123
key=G3
lovel=57
offset=5023
sample=Tenors_Line_Drum_1_HotRods_Hit_F_D4_RR4.opus
xf_velcurve=gain
xfin_hivel=77
xfin_lovel=57
xfout_hivel=123
xfout_lovel=103
</region>

<region>
hivel=127
key=G3
lovel=83
offset=693
sample=Tenors_Line_Drum_1_HotRods_Hit_FF_D4_RR4.opus
xf_velcurve=gain
xfin_hivel=103
xfin_lovel=83
</region>

<region>
hivel=97
key=G3
lovel=31
offset=6608
sample=Tenors_Line_Drum_1_HotRods_Hit_MF_D4_RR4.opus
xf_velcurve=gain
xfin_hivel=51
xfin_lovel=31
xfout_hivel=97
xfout_lovel=77
</region>

<region>
hivel=71
key=G3
lovel=5
offset=4811
sample=Tenors_Line_Drum_1_HotRods_Hit_MP_D4_RR4.opus
xf_velcurve=gain
xfin_hivel=25
xfin_lovel=5
xfout_hivel=71
xfout_lovel=51
</region>

<region>
hivel=45
key=G3
lovel=0
offset=4960
sample=Tenors_Line_Drum_1_HotRods_Hit_P_D4_RR4.opus
xf_velcurve=gain
xfout_hivel=45
xfout_lovel=25
</region>

<region>
hivel=123
key=F#3
lovel=57
offset=4670
sample=Tenors_Line_Drum_2_HotRods_Hit_F_D4_RR4.opus
xf_velcurve=gain
xfin_hivel=77
xfin_lovel=57
xfout_hivel=123
xfout_lovel=103
</region>

<region>
hivel=127
key=F#3
lovel=83
offset=706
sample=Tenors_Line_Drum_2_HotRods_Hit_FF_D4_RR4.opus
xf_velcurve=gain
xfin_hivel=103
xfin_lovel=83
</region>

<region>
hivel=97
key=F#3
lovel=31
offset=3720
sample=Tenors_Line_Drum_2_HotRods_Hit_MF_D4_RR4.opus
xf_velcurve=gain
xfin_hivel=51
xfin_lovel=31
xfout_hivel=97
xfout_lovel=77
</region>

<region>
hivel=71
key=F#3
lovel=5
offset=2782
sample=Tenors_Line_Drum_2_HotRods_Hit_MP_D4_RR4.opus
xf_velcurve=gain
xfin_hivel=25
xfin_lovel=5
xfout_hivel=71
xfout_lovel=51
</region>

<region>
hivel=45
key=F#3
lovel=0
offset=4830
sample=Tenors_Line_Drum_2_HotRods_Hit_P_D4_RR4.opus
xf_velcurve=gain
xfout_hivel=45
xfout_lovel=25
</region>

<region>
hivel=123
key=F3
lovel=57
offset=1654
sample=Tenors_Line_Drum_3_HotRods_Hit_F_D4_RR4.opus
xf_velcurve=gain
xfin_hivel=77
xfin_lovel=57
xfout_hivel=123
xfout_lovel=103
</region>

<region>
hivel=127
key=F3
lovel=83
offset=690
sample=Tenors_Line_Drum_3_HotRods_Hit_FF_D4_RR4.opus
xf_velcurve=gain
xfin_hivel=103
xfin_lovel=83
</region>

<region>
hivel=97
key=F3
lovel=31
offset=2625
sample=Tenors_Line_Drum_3_HotRods_Hit_MF_D4_RR4.opus
xf_velcurve=gain
xfin_hivel=51
xfin_lovel=31
xfout_hivel=97
xfout_lovel=77
</region>

<region>
hivel=71
key=F3
lovel=5
offset=3861
sample=Tenors_Line_Drum_3_HotRods_Hit_MP_D4_RR4.opus
xf_velcurve=gain
xfin_hivel=25
xfin_lovel=5
xfout_hivel=71
xfout_lovel=51
</region>

<region>
hivel=45
key=F3
lovel=0
offset=5958
sample=Tenors_Line_Drum_3_HotRods_Hit_P_D4_RR4.opus
xf_velcurve=gain
xfout_hivel=45
xfout_lovel=25
</region>

<region>
hivel=123
key=E3
lovel=57
offset=3265
sample=Tenors_Line_Drum_4_HotRods_Hit_F_D4_RR4.opus
xf_velcurve=gain
xfin_hivel=77
xfin_lovel=57
xfout_hivel=123
xfout_lovel=103
</region>

<region>
hivel=127
key=E3
lovel=83
offset=622
sample=Tenors_Line_Drum_4_HotRods_Hit_FF_D4_RR4.opus
xf_velcurve=gain
xfin_hivel=103
xfin_lovel=83
</region>

<region>
hivel=97
key=E3
lovel=31
offset=6384
sample=Tenors_Line_Drum_4_HotRods_Hit_MF_D4_RR4.opus
xf_velcurve=gain
xfin_hivel=51
xfin_lovel=31
xfout_hivel=97
xfout_lovel=77
</region>

<region>
hivel=71
key=E3
lovel=5
offset=4444
sample=Tenors_Line_Drum_4_HotRods_Hit_MP_D4_RR4.opus
xf_velcurve=gain
xfin_hivel=25
xfin_lovel=5
xfout_hivel=71
xfout_lovel=51
</region>

<region>
hivel=45
key=E3
lovel=0
offset=4684
sample=Tenors_Line_Drum_4_HotRods_Hit_P_D4_RR4.opus
xf_velcurve=gain
xfout_hivel=45
xfout_lovel=25
</region>

<region>
hivel=123
key=D#3
lovel=57
offset=6270
sample=Tenors_Line_Drum_5_HotRods_Hit_F_D4_RR4.opus
xf_velcurve=gain
xfin_hivel=77
xfin_lovel=57
xfout_hivel=123
xfout_lovel=103
</region>

<region>
hivel=127
key=D#3
lovel=83
offset=617
sample=Tenors_Line_Drum_5_HotRods_Hit_FF_D4_RR4.opus
xf_velcurve=gain
xfin_hivel=103
xfin_lovel=83
</region>

<region>
hivel=97
key=D#3
lovel=31
offset=6336
sample=Tenors_Line_Drum_5_HotRods_Hit_MF_D4_RR4.opus
xf_velcurve=gain
xfin_hivel=51
xfin_lovel=31
xfout_hivel=97
xfout_lovel=77
</region>

<region>
hivel=71
key=D#3
lovel=5
offset=5530
sample=Tenors_Line_Drum_5_HotRods_Hit_MP_D4_RR4.opus
xf_velcurve=gain
xfin_hivel=25
xfin_lovel=5
xfout_hivel=71
xfout_lovel=51
</region>

<region>
hivel=45
key=D#3
lovel=0
offset=4130
sample=Tenors_Line_Drum_5_HotRods_Hit_P_D4_RR4.opus
xf_velcurve=gain
xfout_hivel=45
xfout_lovel=25
</region>

<region>
hivel=123
key=D3
lovel=57
offset=4794
sample=Tenors_Line_Drum_6_HotRods_Hit_F_D4_RR4.opus
xf_velcurve=gain
xfin_hivel=77
xfin_lovel=57
xfout_hivel=123
xfout_lovel=103
</region>

<region>
hivel=127
key=D3
lovel=83
offset=603
sample=Tenors_Line_Drum_6_HotRods_Hit_FF_D4_RR4.opus
xf_velcurve=gain
xfin_hivel=103
xfin_lovel=83
</region>

<region>
hivel=97
key=D3
lovel=31
offset=5779
sample=Tenors_Line_Drum_6_HotRods_Hit_MF_D4_RR4.opus
xf_velcurve=gain
xfin_hivel=51
xfin_lovel=31
xfout_hivel=97
xfout_lovel=77
</region>

<region>
hivel=71
key=D3
lovel=5
offset=5174
sample=Tenors_Line_Drum_6_HotRods_Hit_MP_D4_RR4.opus
xf_velcurve=gain
xfin_hivel=25
xfin_lovel=5
xfout_hivel=71
xfout_lovel=51
</region>

<region>
hivel=45
key=D3
lovel=0
offset=4310
sample=Tenors_Line_Drum_6_HotRods_Hit_P_D4_RR4.opus
xf_velcurve=gain
xfout_hivel=45
xfout_lovel=25
</region>
</group>

<group>
group_label=RR6
seq_length=4
seq_position=3

<region>
hivel=123
key=G3
lovel=57
offset=5624
sample=Tenors_Line_Drum_1_HotRods_Hit_F_D4_RR6.opus
xf_velcurve=gain
xfin_hivel=77
xfin_lovel=57
xfout_hivel=123
xfout_lovel=103
</region>

<region>
hivel=127
key=G3
lovel=83
offset=1685
sample=Tenors_Line_Drum_1_HotRods_Hit_FF_D4_RR6.opus
xf_velcurve=gain
xfin_hivel=103
xfin_lovel=83
</region>

<region>
hivel=97
key=G3
lovel=31
offset=6851
sample=Tenors_Line_Drum_1_HotRods_Hit_MF_D4_RR6.opus
xf_velcurve=gain
xfin_hivel=51
xfin_lovel=31
xfout_hivel=97
xfout_lovel=77
</region>

<region>
hivel=71
key=G3
lovel=5
offset=5374
sample=Tenors_Line_Drum_1_HotRods_Hit_MP_D4_RR6.opus
xf_velcurve=gain
xfin_hivel=25
xfin_lovel=5
xfout_hivel=71
xfout_lovel=51
</region>

<region>
hivel=45
key=G3
lovel=0
offset=4721
sample=Tenors_Line_Drum_1_HotRods_Hit_P_D4_RR6.opus
xf_velcurve=gain
xfout_hivel=45
xfout_lovel=25
</region>

<region>
hivel=123
key=F#3
lovel=57
offset=4942
sample=Tenors_Line_Drum_2_HotRods_Hit_F_D4_RR6.opus
xf_velcurve=gain
xfin_hivel=77
xfin_lovel=57
xfout_hivel=123
xfout_lovel=103
</region>

<region>
hivel=127
key=F#3
lovel=83
offset=1440
sample=Tenors_Line_Drum_2_HotRods_Hit_FF_D4_RR6.opus
xf_velcurve=gain
xfin_hivel=103
xfin_lovel=83
</region>

<region>
hivel=97
key=F#3
lovel=31
offset=4714
sample=Tenors_Line_Drum_2_HotRods_Hit_MF_D4_RR6.opus
xf_velcurve=gain
xfin_hivel=51
xfin_lovel=31
xfout_hivel=97
xfout_lovel=77
</region>

<region>
hivel=71
key=F#3
lovel=5
offset=3422
sample=Tenors_Line_Drum_2_HotRods_Hit_MP_D4_RR6.opus
xf_velcurve=gain
xfin_hivel=25
xfin_lovel=5
xfout_hivel=71
xfout_lovel=51
</region>

<region>
hivel=45
key=F#3
lovel=0
offset=5240
sample=Tenors_Line_Drum_2_HotRods_Hit_P_D4_RR6.opus
xf_velcurve=gain
xfout_hivel=45
xfout_lovel=25
</region>

<region>
hivel=123
key=F3
lovel=57
offset=1666
sample=Tenors_Line_Drum_3_HotRods_Hit_F_D4_RR6.opus
xf_velcurve=gain
xfin_hivel=77
xfin_lovel=57
xfout_hivel=123
xfout_lovel=103
</region>

<region>
hivel=127
key=F3
lovel=83
offset=624
sample=Tenors_Line_Drum_3_HotRods_Hit_FF_D4_RR6.opus
xf_velcurve=gain
xfin_hivel=103
xfin_lovel=83
</region>

<region>
hivel=97
key=F3
lovel=31
offset=5067
sample=Tenors_Line_Drum_3_HotRods_Hit_MF_D4_RR6.opus
xf_velcurve=gain
xfin_hivel=51
xfin_lovel=31
xfout_hivel=97
xfout_lovel=77
</region>

<region>
hivel=71
key=F3
lovel=5
offset=4799
sample=Tenors_Line_Drum_3_HotRods_Hit_MP_D4_RR6.opus
xf_velcurve=gain
xfin_hivel=25
xfin_lovel=5
xfout_hivel=71
xfout_lovel=51
</region>

<region>
hivel=45
key=F3
lovel=0
offset=5911
sample=Tenors_Line_Drum_3_HotRods_Hit_P_D4_RR6.opus
xf_velcurve=gain
xfout_hivel=45
xfout_lovel=25
</region>

<region>
hivel=123
key=E3
lovel=57
offset=2145
sample=Tenors_Line_Drum_4_HotRods_Hit_F_D4_RR6.opus
xf_velcurve=gain
xfin_hivel=77
xfin_lovel=57
xfout_hivel=123
xfout_lovel=103
</region>

<region>
hivel=127
key=E3
lovel=83
offset=696
sample=Tenors_Line_Drum_4_HotRods_Hit_FF_D4_RR6.opus
xf_velcurve=gain
xfin_hivel=103
xfin_lovel=83
</region>

<region>
hivel=97
key=E3
lovel=31
offset=6041
sample=Tenors_Line_Drum_4_HotRods_Hit_MF_D4_RR6.opus
xf_velcurve=gain
xfin_hivel=51
xfin_lovel=31
xfout_hivel=97
xfout_lovel=77
</region>

<region>
hivel=71
key=E3
lovel=5
offset=4950
sample=Tenors_Line_Drum_4_HotRods_Hit_MP_D4_RR6.opus
xf_velcurve=gain
xfin_hivel=25
xfin_lovel=5
xfout_hivel=71
xfout_lovel=51
</region>

<region>
hivel=45
key=E3
lovel=0
offset=4945
sample=Tenors_Line_Drum_4_HotRods_Hit_P_D4_RR6.opus
xf_velcurve=gain
xfout_hivel=45
xfout_lovel=25
</region>

<region>
hivel=123
key=D#3
lovel=57
offset=7175
sample=Tenors_Line_Drum_5_HotRods_Hit_F_D4_RR6.opus
xf_velcurve=gain
xfin_hivel=77
xfin_lovel=57
xfout_hivel=123
xfout_lovel=103
</region>

<region>
hivel=127
key=D#3
lovel=83
offset=577
sample=Tenors_Line_Drum_5_HotRods_Hit_FF_D4_RR6.opus
xf_velcurve=gain
xfin_hivel=103
xfin_lovel=83
</region>

<region>
hivel=97
key=D#3
lovel=31
offset=6586
sample=Tenors_Line_Drum_5_HotRods_Hit_MF_D4_RR6.opus
xf_velcurve=gain
xfin_hivel=51
xfin_lovel=31
xfout_hivel=97
xfout_lovel=77
</region>

<region>
hivel=71
key=D#3
lovel=5
offset=6343
sample=Tenors_Line_Drum_5_HotRods_Hit_MP_D4_RR6.opus
xf_velcurve=gain
xfin_hivel=25
xfin_lovel=5
xfout_hivel=71
xfout_lovel=51
</region>

<region>
hivel=45
key=D#3
lovel=0
offset=4634
sample=Tenors_Line_Drum_5_HotRods_Hit_P_D4_RR6.opus
xf_velcurve=gain
xfout_hivel=45
xfout_lovel=25
</region>

<region>
hivel=123
key=D3
lovel=57
offset=4701
sample=Tenors_Line_Drum_6_HotRods_Hit_F_D4_RR6.opus
xf_velcurve=gain
xfin_hivel=77
xfin_lovel=57
xfout_hivel=123
xfout_lovel=103
</region>

<region>
hivel=127
key=D3
lovel=83
offset=719
sample=Tenors_Line_Drum_6_HotRods_Hit_FF_D4_RR6.opus
xf_velcurve=gain
xfin_hivel=103
xfin_lovel=83
</region>

<region>
hivel=97
key=D3
lovel=31
offset=6481
sample=Tenors_Line_Drum_6_HotRods_Hit_MF_D4_RR6.opus
xf_velcurve=gain
xfin_hivel=51
xfin_lovel=31
xfout_hivel=97
xfout_lovel=77
</region>

<region>
hivel=71
key=D3
lovel=5
offset=5392
sample=Tenors_Line_Drum_6_HotRods_Hit_MP_D4_RR6.opus
xf_velcurve=gain
xfin_hivel=25
xfin_lovel=5
xfout_hivel=71
xfout_lovel=51
</region>

<region>
hivel=45
key=D3
lovel=0
offset=5620
sample=Tenors_Line_Drum_6_HotRods_Hit_P_D4_RR6.opus
xf_velcurve=gain
xfout_hivel=45
xfout_lovel=25
</region>
</group>

<group>
group_label=RR8
seq_length=4
seq_position=4

<region>
hivel=123
key=G3
lovel=57
offset=3258
sample=Tenors_Line_Drum_1_HotRods_Hit_F_D4_RR8.opus
xf_velcurve=gain
xfin_hivel=77
xfin_lovel=57
xfout_hivel=123
xfout_lovel=103
</region>

<region>
hivel=127
key=G3
lovel=83
offset=631
sample=Tenors_Line_Drum_1_HotRods_Hit_FF_D4_RR8.opus
xf_velcurve=gain
xfin_hivel=103
xfin_lovel=83
</region>

<region>
hivel=97
key=G3
lovel=31
offset=6335
sample=Tenors_Line_Drum_1_HotRods_Hit_MF_D4_RR8.opus
xf_velcurve=gain
xfin_hivel=51
xfin_lovel=31
xfout_hivel=97
xfout_lovel=77
</region>

<region>
hivel=71
key=G3
lovel=5
offset=5698
sample=Tenors_Line_Drum_1_HotRods_Hit_MP_D4_RR8.opus
xf_velcurve=gain
xfin_hivel=25
xfin_lovel=5
xfout_hivel=71
xfout_lovel=51
</region>

<region>
hivel=45
key=G3
lovel=0
offset=6031
sample=Tenors_Line_Drum_1_HotRods_Hit_P_D4_RR8.opus
xf_velcurve=gain
xfout_hivel=45
xfout_lovel=25
</region>

<region>
hivel=123
key=F#3
lovel=57
offset=3836
sample=Tenors_Line_Drum_2_HotRods_Hit_F_D4_RR8.opus
xf_velcurve=gain
xfin_hivel=77
xfin_lovel=57
xfout_hivel=123
xfout_lovel=103
</region>

<region>
hivel=127
key=F#3
lovel=83
offset=3936
sample=Tenors_Line_Drum_2_HotRods_Hit_FF_D4_RR8.opus
xf_velcurve=gain
xfin_hivel=103
xfin_lovel=83
</region>

<region>
hivel=97
key=F#3
lovel=31
offset=5490
sample=Tenors_Line_Drum_2_HotRods_Hit_MF_D4_RR8.opus
xf_velcurve=gain
xfin_hivel=51
xfin_lovel=31
xfout_hivel=97
xfout_lovel=77
</region>

<region>
hivel=71
key=F#3
lovel=5
offset=4261
sample=Tenors_Line_Drum_2_HotRods_Hit_MP_D4_RR8.opus
xf_velcurve=gain
xfin_hivel=25
xfin_lovel=5
xfout_hivel=71
xfout_lovel=51
</region>

<region>
hivel=45
key=F#3
lovel=0
offset=4393
sample=Tenors_Line_Drum_2_HotRods_Hit_P_D4_RR8.opus
xf_velcurve=gain
xfout_hivel=45
xfout_lovel=25
</region>

<region>
hivel=123
key=F3
lovel=57
offset=704
sample=Tenors_Line_Drum_3_HotRods_Hit_F_D4_RR8.opus
xf_velcurve=gain
xfin_hivel=77
xfin_lovel=57
xfout_hivel=123
xfout_lovel=103
</region>

<region>
hivel=127
key=F3
lovel=83
offset=1201
sample=Tenors_Line_Drum_3_HotRods_Hit_FF_D4_RR8.opus
xf_velcurve=gain
xfin_hivel=103
xfin_lovel=83
</region>

<region>
hivel=97
key=F3
lovel=31
offset=6137
sample=Tenors_Line_Drum_3_HotRods_Hit_MF_D4_RR8.opus
xf_velcurve=gain
xfin_hivel=51
xfin_lovel=31
xfout_hivel=97
xfout_lovel=77
</region>

<region>
hivel=71
key=F3
lovel=5
offset=4546
sample=Tenors_Line_Drum_3_HotRods_Hit_MP_D4_RR8.opus
xf_velcurve=gain
xfin_hivel=25
xfin_lovel=5
xfout_hivel=71
xfout_lovel=51
</region>

<region>
hivel=45
key=F3
lovel=0
offset=5704
sample=Tenors_Line_Drum_3_HotRods_Hit_P_D4_RR8.opus
xf_velcurve=gain
xfout_hivel=45
xfout_lovel=25
</region>

<region>
hivel=123
key=E3
lovel=57
offset=659
sample=Tenors_Line_Drum_4_HotRods_Hit_F_D4_RR8.opus
xf_velcurve=gain
xfin_hivel=77
xfin_lovel=57
xfout_hivel=123
xfout_lovel=103
</region>

<region>
hivel=127
key=E3
lovel=83
offset=692
sample=Tenors_Line_Drum_4_HotRods_Hit_FF_D4_RR8.opus
xf_velcurve=gain
xfin_hivel=103
xfin_lovel=83
</region>

<region>
end=40622
hivel=97
key=E3
lovel=31
offset=6239
sample=Tenors_Line_Drum_4_HotRods_Hit_MF_D4_RR8.opus
xf_velcurve=gain
xfin_hivel=51
xfin_lovel=31
xfout_hivel=97
xfout_lovel=77
</region>

<region>
hivel=71
key=E3
lovel=5
offset=5068
sample=Tenors_Line_Drum_4_HotRods_Hit_MP_D4_RR8.opus
xf_velcurve=gain
xfin_hivel=25
xfin_lovel=5
xfout_hivel=71
xfout_lovel=51
</region>

<region>
end=57444
hivel=45
key=E3
lovel=0
offset=4508
sample=Tenors_Line_Drum_4_HotRods_Hit_P_D4_RR8.opus
xf_velcurve=gain
xfout_hivel=45
xfout_lovel=25
</region>

<region>
hivel=123
key=D#3
lovel=57
offset=6332
sample=Tenors_Line_Drum_5_HotRods_Hit_F_D4_RR8.opus
xf_velcurve=gain
xfin_hivel=77
xfin_lovel=57
xfout_hivel=123
xfout_lovel=103
</region>

<region>
hivel=127
key=D#3
lovel=83
offset=1461
sample=Tenors_Line_Drum_5_HotRods_Hit_FF_D4_RR8.opus
xf_velcurve=gain
xfin_hivel=103
xfin_lovel=83
</region>

<region>
hivel=97
key=D#3
lovel=31
offset=6577
sample=Tenors_Line_Drum_5_HotRods_Hit_MF_D4_RR8.opus
xf_velcurve=gain
xfin_hivel=51
xfin_lovel=31
xfout_hivel=97
xfout_lovel=77
</region>

<region>
hivel=71
key=D#3
lovel=5
offset=4957
sample=Tenors_Line_Drum_5_HotRods_Hit_MP_D4_RR8.opus
xf_velcurve=gain
xfin_hivel=25
xfin_lovel=5
xfout_hivel=71
xfout_lovel=51
</region>

<region>
hivel=45
key=D#3
lovel=0
offset=5606
sample=Tenors_Line_Drum_5_HotRods_Hit_P_D4_RR8.opus
xf_velcurve=gain
xfout_hivel=45
xfout_lovel=25
</region>

<region>
hivel=123
key=D3
lovel=57
offset=5060
sample=Tenors_Line_Drum_6_HotRods_Hit_F_D4_RR8.opus
xf_velcurve=gain
xfin_hivel=77
xfin_lovel=57
xfout_hivel=123
xfout_lovel=103
</region>

<region>
hivel=127
key=D3
lovel=83
offset=716
sample=Tenors_Line_Drum_6_HotRods_Hit_FF_D4_RR8.opus
xf_velcurve=gain
xfin_hivel=103
xfin_lovel=83
</region>

<region>
hivel=97
key=D3
lovel=31
offset=6357
sample=Tenors_Line_Drum_6_HotRods_Hit_MF_D4_RR8.opus
xf_velcurve=gain
xfin_hivel=51
xfin_lovel=31
xfout_hivel=97
xfout_lovel=77
</region>

<region>
hivel=71
key=D3
lovel=5
offset=5111
sample=Tenors_Line_Drum_6_HotRods_Hit_MP_D4_RR8.opus
xf_velcurve=gain
xfin_hivel=25
xfin_lovel=5
xfout_hivel=71
xfout_lovel=51
</region>

<region>
hivel=45
key=D3
lovel=0
offset=5424
sample=Tenors_Line_Drum_6_HotRods_Hit_P_D4_RR8.opus
xf_velcurve=gain
xfout_hivel=45
xfout_lovel=25
</region>
</group>

<group>
color=green
group_label=Alt_Hits_RR2
seq_length=2
seq_position=1

<region>
hivel=103
key=G4
lovel=78
offset=5122
sample=Tenors_Line_Drum_1_HotRods_Muted_Hit_F_D4_RR2.opus
</region>

<region>
hivel=127
key=G4
lovel=104
offset=599
sample=Tenors_Line_Drum_1_HotRods_Muted_Hit_FF_D4_RR2.opus
</region>

<region>
hivel=77
key=G4
lovel=52
offset=5937
sample=Tenors_Line_Drum_1_HotRods_Muted_Hit_MF_D4_RR2.opus
</region>

<region>
hivel=51
key=G4
lovel=26
offset=5838
sample=Tenors_Line_Drum_1_HotRods_Muted_Hit_MP_D4_RR2.opus
</region>

<region>
hivel=25
key=G4
lovel=0
offset=5890
sample=Tenors_Line_Drum_1_HotRods_Muted_Hit_P_D4_RR2.opus
</region>

<region>
hivel=103
key=G5
lovel=78
offset=5382
sample=Tenors_Line_Drum_1_HotRods_Rim_Hit_F_D4_RR2.opus
</region>

<region>
hivel=127
key=G5
lovel=104
offset=3960
sample=Tenors_Line_Drum_1_HotRods_Rim_Hit_FF_D4_RR2.opus
</region>

<region>
hivel=77
key=G5
lovel=52
offset=5083
sample=Tenors_Line_Drum_1_HotRods_Rim_Hit_MF_D4_RR2.opus
</region>

<region>
hivel=51
key=G5
lovel=26
offset=4927
sample=Tenors_Line_Drum_1_HotRods_Rim_Hit_MP_D4_RR2.opus
</region>

<region>
hivel=25
key=G5
lovel=0
offset=4093
sample=Tenors_Line_Drum_1_HotRods_Rim_Hit_P_D4_RR2.opus
</region>

<region>
hivel=103
key=F#4
lovel=78
offset=5242
sample=Tenors_Line_Drum_2_HotRods_Muted_Hit_F_D4_RR2.opus
</region>

<region>
hivel=127
key=F#4
lovel=104
offset=4540
sample=Tenors_Line_Drum_2_HotRods_Muted_Hit_FF_D4_RR2.opus
</region>

<region>
hivel=77
key=F#4
lovel=52
offset=5584
sample=Tenors_Line_Drum_2_HotRods_Muted_Hit_MF_D4_RR2.opus
</region>

<region>
hivel=51
key=F#4
lovel=26
offset=2803
sample=Tenors_Line_Drum_2_HotRods_Muted_Hit_MP_D4_RR2.opus
</region>

<region>
hivel=25
key=F#4
lovel=0
offset=5554
sample=Tenors_Line_Drum_2_HotRods_Muted_Hit_P_D4_RR2.opus
</region>

<region>
hivel=103
key=F#5
lovel=78
offset=4228
sample=Tenors_Line_Drum_2_HotRods_Rim_Hit_F_D4_RR2.opus
</region>

<region>
hivel=127
key=F#5
lovel=104
offset=5335
sample=Tenors_Line_Drum_2_HotRods_Rim_Hit_FF_D4_RR2.opus
</region>

<region>
hivel=77
key=F#5
lovel=52
offset=4008
sample=Tenors_Line_Drum_2_HotRods_Rim_Hit_MF_D4_RR2.opus
</region>

<region>
hivel=51
key=F#5
lovel=26
offset=3439
sample=Tenors_Line_Drum_2_HotRods_Rim_Hit_MP_D4_RR2.opus
</region>

<region>
hivel=25
key=F#5
lovel=0
offset=4466
sample=Tenors_Line_Drum_2_HotRods_Rim_Hit_P_D4_RR2.opus
</region>

<region>
hivel=103
key=F4
lovel=78
offset=736
sample=Tenors_Line_Drum_3_HotRods_Muted_Hit_F_D4_RR2.opus
</region>

<region>
hivel=127
key=F4
lovel=104
offset=718
sample=Tenors_Line_Drum_3_HotRods_Muted_Hit_FF_D4_RR2.opus
</region>

<region>
hivel=77
key=F4
lovel=52
offset=6419
sample=Tenors_Line_Drum_3_HotRods_Muted_Hit_MF_D4_RR2.opus
</region>

<region>
hivel=51
key=F4
lovel=26
offset=3553
sample=Tenors_Line_Drum_3_HotRods_Muted_Hit_MP_D4_RR2.opus
</region>

<region>
hivel=25
key=F4
lovel=0
offset=5688
sample=Tenors_Line_Drum_3_HotRods_Muted_Hit_P_D4_RR2.opus
</region>

<region>
hivel=103
key=F5
lovel=78
offset=5814
sample=Tenors_Line_Drum_3_HotRods_Rim_Hit_F_D4_RR2.opus
</region>

<region>
hivel=127
key=F5
lovel=104
offset=6204
sample=Tenors_Line_Drum_3_HotRods_Rim_Hit_FF_D4_RR2.opus
</region>

<region>
hivel=77
key=F5
lovel=52
offset=5189
sample=Tenors_Line_Drum_3_HotRods_Rim_Hit_MF_D4_RR2.opus
</region>

<region>
hivel=51
key=F5
lovel=26
offset=3150
sample=Tenors_Line_Drum_3_HotRods_Rim_Hit_MP_D4_RR2.opus
</region>

<region>
hivel=25
key=F5
lovel=0
offset=5971
sample=Tenors_Line_Drum_3_HotRods_Rim_Hit_P_D4_RR2.opus
</region>

<region>
hivel=103
key=E4
lovel=78
offset=4790
sample=Tenors_Line_Drum_4_HotRods_Muted_Hit_F_D4_RR2.opus
</region>

<region>
hivel=127
key=E4
lovel=104
offset=619
sample=Tenors_Line_Drum_4_HotRods_Muted_Hit_FF_D4_RR2.opus
</region>

<region>
hivel=77
key=E4
lovel=52
offset=6649
sample=Tenors_Line_Drum_4_HotRods_Muted_Hit_MF_D4_RR2.opus
</region>

<region>
hivel=51
key=E4
lovel=26
offset=4437
sample=Tenors_Line_Drum_4_HotRods_Muted_Hit_MP_D4_RR2.opus
</region>

<region>
hivel=25
key=E4
lovel=0
offset=5355
sample=Tenors_Line_Drum_4_HotRods_Muted_Hit_P_D4_RR2.opus
</region>

<region>
hivel=103
key=E5
lovel=78
offset=6745
sample=Tenors_Line_Drum_4_HotRods_Rim_Hit_F_D4_RR2.opus
</region>

<region>
hivel=127
key=E5
lovel=104
offset=6205
sample=Tenors_Line_Drum_4_HotRods_Rim_Hit_FF_D4_RR2.opus
</region>

<region>
hivel=77
key=E5
lovel=52
offset=6354
sample=Tenors_Line_Drum_4_HotRods_Rim_Hit_MF_D4_RR2.opus
</region>

<region>
hivel=51
key=E5
lovel=26
offset=4941
sample=Tenors_Line_Drum_4_HotRods_Rim_Hit_MP_D4_RR2.opus
</region>

<region>
hivel=25
key=E5
lovel=0
offset=4814
sample=Tenors_Line_Drum_4_HotRods_Rim_Hit_P_D4_RR2.opus
</region>

<region>
hivel=103
key=D#4
lovel=78
offset=6783
sample=Tenors_Line_Drum_5_HotRods_Muted_Hit_F_D4_RR2.opus
</region>

<region>
hivel=127
key=D#4
lovel=104
offset=7729
sample=Tenors_Line_Drum_5_HotRods_Muted_Hit_FF_D4_RR2.opus
</region>

<region>
hivel=77
key=D#4
lovel=52
offset=5392
sample=Tenors_Line_Drum_5_HotRods_Muted_Hit_MF_D4_RR2.opus
</region>

<region>
hivel=51
key=D#4
lovel=26
offset=6735
sample=Tenors_Line_Drum_5_HotRods_Muted_Hit_MP_D4_RR2.opus
</region>

<region>
hivel=25
key=D#4
lovel=0
offset=5368
sample=Tenors_Line_Drum_5_HotRods_Muted_Hit_P_D4_RR2.opus
</region>

<region>
hivel=103
key=D#5
lovel=78
offset=6350
sample=Tenors_Line_Drum_5_HotRods_Rim_Hit_F_D4_RR2.opus
</region>

<region>
hivel=127
key=D#5
lovel=104
offset=7486
sample=Tenors_Line_Drum_5_HotRods_Rim_Hit_FF_D4_RR2.opus
</region>

<region>
hivel=77
key=D#5
lovel=52
offset=5824
sample=Tenors_Line_Drum_5_HotRods_Rim_Hit_MF_D4_RR2.opus
</region>

<region>
hivel=51
key=D#5
lovel=26
offset=7039
sample=Tenors_Line_Drum_5_HotRods_Rim_Hit_MP_D4_RR2.opus
</region>

<region>
hivel=25
key=D#5
lovel=0
offset=4943
sample=Tenors_Line_Drum_5_HotRods_Rim_Hit_P_D4_RR2.opus
</region>

<region>
hivel=103
key=D4
lovel=78
offset=5329
sample=Tenors_Line_Drum_6_HotRods_Muted_Hit_F_D4_RR2.opus
</region>

<region>
hivel=127
key=D4
lovel=104
offset=3343
sample=Tenors_Line_Drum_6_HotRods_Muted_Hit_FF_D4_RR2.opus
</region>

<region>
hivel=77
key=D4
lovel=52
offset=6024
sample=Tenors_Line_Drum_6_HotRods_Muted_Hit_MF_D4_RR2.opus
</region>

<region>
hivel=51
key=D4
lovel=26
offset=6281
sample=Tenors_Line_Drum_6_HotRods_Muted_Hit_MP_D4_RR2.opus
</region>

<region>
hivel=25
key=D4
lovel=0
offset=4463
sample=Tenors_Line_Drum_6_HotRods_Muted_Hit_P_D4_RR2.opus
</region>

<region>
hivel=103
key=D5
lovel=78
offset=4619
sample=Tenors_Line_Drum_6_HotRods_Rim_Hit_F_D4_RR2.opus
</region>

<region>
hivel=127
key=D5
lovel=104
offset=3828
sample=Tenors_Line_Drum_6_HotRods_Rim_Hit_FF_D4_RR2.opus
</region>

<region>
hivel=77
key=D5
lovel=52
offset=5337
sample=Tenors_Line_Drum_6_HotRods_Rim_Hit_MF_D4_RR2.opus
</region>

<region>
hivel=51
key=D5
lovel=26
offset=5108
sample=Tenors_Line_Drum_6_HotRods_Rim_Hit_MP_D4_RR2.opus
</region>

<region>
hivel=25
key=D5
lovel=0
offset=5737
sample=Tenors_Line_Drum_6_HotRods_Rim_Hit_P_D4_RR2.opus
</region>
</group>

<group>
color=green
group_label=Alt_Hits_RR4
seq_length=2
seq_position=2

<region>
hivel=103
key=G4
lovel=78
offset=5468
sample=Tenors_Line_Drum_1_HotRods_Muted_Hit_F_D4_RR4.opus
</region>

<region>
hivel=127
key=G4
lovel=104
offset=3585
sample=Tenors_Line_Drum_1_HotRods_Muted_Hit_FF_D4_RR4.opus
</region>

<region>
hivel=77
key=G4
lovel=52
offset=5796
sample=Tenors_Line_Drum_1_HotRods_Muted_Hit_MF_D4_RR4.opus
</region>

<region>
hivel=51
key=G4
lovel=26
offset=5149
sample=Tenors_Line_Drum_1_HotRods_Muted_Hit_MP_D4_RR4.opus
</region>

<region>
hivel=25
key=G4
lovel=0
offset=5670
sample=Tenors_Line_Drum_1_HotRods_Muted_Hit_P_D4_RR4.opus
</region>

<region>
hivel=103
key=G5
lovel=78
offset=5016
sample=Tenors_Line_Drum_1_HotRods_Rim_Hit_F_D4_RR4.opus
</region>

<region>
hivel=127
key=G5
lovel=104
offset=4982
sample=Tenors_Line_Drum_1_HotRods_Rim_Hit_FF_D4_RR4.opus
</region>

<region>
hivel=77
key=G5
lovel=52
offset=5547
sample=Tenors_Line_Drum_1_HotRods_Rim_Hit_MF_D4_RR4.opus
</region>

<region>
hivel=51
key=G5
lovel=26
offset=6059
sample=Tenors_Line_Drum_1_HotRods_Rim_Hit_MP_D4_RR4.opus
</region>

<region>
hivel=25
key=G5
lovel=0
offset=4724
sample=Tenors_Line_Drum_1_HotRods_Rim_Hit_P_D4_RR4.opus
</region>

<region>
hivel=103
key=F#4
lovel=78
offset=3825
sample=Tenors_Line_Drum_2_HotRods_Muted_Hit_F_D4_RR4.opus
</region>

<region>
hivel=127
key=F#4
lovel=104
offset=830
sample=Tenors_Line_Drum_2_HotRods_Muted_Hit_FF_D4_RR4.opus
</region>

<region>
hivel=77
key=F#4
lovel=52
offset=3702
sample=Tenors_Line_Drum_2_HotRods_Muted_Hit_MF_D4_RR4.opus
</region>

<region>
hivel=51
key=F#4
lovel=26
offset=2755
sample=Tenors_Line_Drum_2_HotRods_Muted_Hit_MP_D4_RR4.opus
</region>

<region>
hivel=25
key=F#4
lovel=0
offset=4515
sample=Tenors_Line_Drum_2_HotRods_Muted_Hit_P_D4_RR4.opus
</region>

<region>
hivel=103
key=F#5
lovel=78
offset=5669
sample=Tenors_Line_Drum_2_HotRods_Rim_Hit_F_D4_RR4.opus
</region>

<region>
hivel=127
key=F#5
lovel=104
offset=6351
sample=Tenors_Line_Drum_2_HotRods_Rim_Hit_FF_D4_RR4.opus
</region>

<region>
hivel=77
key=F#5
lovel=52
offset=4135
sample=Tenors_Line_Drum_2_HotRods_Rim_Hit_MF_D4_RR4.opus
</region>

<region>
hivel=51
key=F#5
lovel=26
offset=3358
sample=Tenors_Line_Drum_2_HotRods_Rim_Hit_MP_D4_RR4.opus
</region>

<region>
hivel=25
key=F#5
lovel=0
offset=4433
sample=Tenors_Line_Drum_2_HotRods_Rim_Hit_P_D4_RR4.opus
</region>

<region>
hivel=103
key=F4
lovel=78
offset=1609
sample=Tenors_Line_Drum_3_HotRods_Muted_Hit_F_D4_RR4.opus
</region>

<region>
hivel=127
key=F4
lovel=104
offset=701
sample=Tenors_Line_Drum_3_HotRods_Muted_Hit_FF_D4_RR4.opus
</region>

<region>
hivel=77
key=F4
lovel=52
offset=4801
sample=Tenors_Line_Drum_3_HotRods_Muted_Hit_MF_D4_RR4.opus
</region>

<region>
hivel=51
key=F4
lovel=26
offset=3603
sample=Tenors_Line_Drum_3_HotRods_Muted_Hit_MP_D4_RR4.opus
</region>

<region>
hivel=25
key=F4
lovel=0
offset=5153
sample=Tenors_Line_Drum_3_HotRods_Muted_Hit_P_D4_RR4.opus
</region>

<region>
hivel=103
key=F5
lovel=78
offset=5879
sample=Tenors_Line_Drum_3_HotRods_Rim_Hit_F_D4_RR4.opus
</region>

<region>
hivel=127
key=F5
lovel=104
offset=6622
sample=Tenors_Line_Drum_3_HotRods_Rim_Hit_FF_D4_RR4.opus
</region>

<region>
hivel=77
key=F5
lovel=52
offset=4865
sample=Tenors_Line_Drum_3_HotRods_Rim_Hit_MF_D4_RR4.opus
</region>

<region>
hivel=51
key=F5
lovel=26
offset=3509
sample=Tenors_Line_Drum_3_HotRods_Rim_Hit_MP_D4_RR4.opus
</region>

<region>
hivel=25
key=F5
lovel=0
offset=5434
sample=Tenors_Line_Drum_3_HotRods_Rim_Hit_P_D4_RR4.opus
</region>

<region>
hivel=103
key=E4
lovel=78
offset=582
sample=Tenors_Line_Drum_4_HotRods_Muted_Hit_F_D4_RR4.opus
</region>

<region>
hivel=127
key=E4
lovel=104
offset=703
sample=Tenors_Line_Drum_4_HotRods_Muted_Hit_FF_D4_RR4.opus
</region>

<region>
hivel=77
key=E4
lovel=52
offset=6678
sample=Tenors_Line_Drum_4_HotRods_Muted_Hit_MF_D4_RR4.opus
</region>

<region>
hivel=51
key=E4
lovel=26
offset=4211
sample=Tenors_Line_Drum_4_HotRods_Muted_Hit_MP_D4_RR4.opus
</region>

<region>
hivel=25
key=E4
lovel=0
offset=4300
sample=Tenors_Line_Drum_4_HotRods_Muted_Hit_P_D4_RR4.opus
</region>

<region>
hivel=103
key=E5
lovel=78
offset=6478
sample=Tenors_Line_Drum_4_HotRods_Rim_Hit_F_D4_RR4.opus
</region>

<region>
hivel=127
key=E5
lovel=104
offset=5375
sample=Tenors_Line_Drum_4_HotRods_Rim_Hit_FF_D4_RR4.opus
</region>

<region>
hivel=77
key=E5
lovel=52
offset=6354
sample=Tenors_Line_Drum_4_HotRods_Rim_Hit_MF_D4_RR4.opus
</region>

<region>
hivel=51
key=E5
lovel=26
offset=5212
sample=Tenors_Line_Drum_4_HotRods_Rim_Hit_MP_D4_RR4.opus
</region>

<region>
end=34598
hivel=25
key=E5
lovel=0
offset=4457
sample=Tenors_Line_Drum_4_HotRods_Rim_Hit_P_D4_RR4.opus
</region>

<region>
hivel=103
key=D#4
lovel=78
offset=3463
sample=Tenors_Line_Drum_5_HotRods_Muted_Hit_F_D4_RR4.opus
</region>

<region>
hivel=127
key=D#4
lovel=104
offset=620
sample=Tenors_Line_Drum_5_HotRods_Muted_Hit_FF_D4_RR4.opus
</region>

<region>
hivel=77
key=D#4
lovel=52
offset=6040
sample=Tenors_Line_Drum_5_HotRods_Muted_Hit_MF_D4_RR4.opus
</region>

<region>
hivel=51
key=D#4
lovel=26
offset=5502
sample=Tenors_Line_Drum_5_HotRods_Muted_Hit_MP_D4_RR4.opus
</region>

<region>
hivel=25
key=D#4
lovel=0
offset=4795
sample=Tenors_Line_Drum_5_HotRods_Muted_Hit_P_D4_RR4.opus
</region>

<region>
hivel=103
key=D#5
lovel=78
offset=5645
sample=Tenors_Line_Drum_5_HotRods_Rim_Hit_F_D4_RR4.opus
</region>

<region>
hivel=127
key=D#5
lovel=104
offset=7291
sample=Tenors_Line_Drum_5_HotRods_Rim_Hit_FF_D4_RR4.opus
</region>

<region>
hivel=77
key=D#5
lovel=52
offset=6078
sample=Tenors_Line_Drum_5_HotRods_Rim_Hit_MF_D4_RR4.opus
</region>

<region>
hivel=51
key=D#5
lovel=26
offset=6190
sample=Tenors_Line_Drum_5_HotRods_Rim_Hit_MP_D4_RR4.opus
</region>

<region>
hivel=25
key=D#5
lovel=0
offset=4989
sample=Tenors_Line_Drum_5_HotRods_Rim_Hit_P_D4_RR4.opus
</region>

<region>
hivel=103
key=D4
lovel=78
offset=2876
sample=Tenors_Line_Drum_6_HotRods_Muted_Hit_F_D4_RR4.opus
</region>

<region>
hivel=127
key=D4
lovel=104
offset=4021
sample=Tenors_Line_Drum_6_HotRods_Muted_Hit_FF_D4_RR4.opus
</region>

<region>
hivel=77
key=D4
lovel=52
offset=6177
sample=Tenors_Line_Drum_6_HotRods_Muted_Hit_MF_D4_RR4.opus
</region>

<region>
hivel=51
key=D4
lovel=26
offset=5383
sample=Tenors_Line_Drum_6_HotRods_Muted_Hit_MP_D4_RR4.opus
</region>

<region>
hivel=25
key=D4
lovel=0
offset=3632
sample=Tenors_Line_Drum_6_HotRods_Muted_Hit_P_D4_RR4.opus
</region>

<region>
hivel=103
key=D5
lovel=78
offset=5381
sample=Tenors_Line_Drum_6_HotRods_Rim_Hit_F_D4_RR4.opus
</region>

<region>
hivel=127
key=D5
lovel=104
offset=4428
sample=Tenors_Line_Drum_6_HotRods_Rim_Hit_FF_D4_RR4.opus
</region>

<region>
hivel=77
key=D5
lovel=52
offset=6305
sample=Tenors_Line_Drum_6_HotRods_Rim_Hit_MF_D4_RR4.opus
</region>

<region>
hivel=51
key=D5
lovel=26
offset=5437
sample=Tenors_Line_Drum_6_HotRods_Rim_Hit_MP_D4_RR4.opus
</region>

<region>
hivel=25
key=D5
lovel=0
offset=4952
sample=Tenors_Line_Drum_6_HotRods_Rim_Hit_P_D4_RR4.opus
</region>
</group>